<svg width="18" height="18" viewBox="0 0 18 18" fill="none" xmlns="http://www.w3.org/2000/svg">
<path d="M17.8042 3.528L14.4738 0.198001C14.3478 0.0720011 14.1768 0 13.9968 0C13.8167 0 13.6457 0.0720011 13.5197 0.198001L0.207022 13.509C0.0810063 13.635 0.0179973 13.797 0.00899618 13.977L0 17.325C0 17.505 0.0720101 17.676 0.198026 17.802C0.324042 17.928 0.495062 18 0.675084 18L4.0235 17.991C4.20353 17.991 4.37455 17.919 4.49157 17.793L17.8042 4.482C18.0653 4.221 18.0653 3.789 17.8042 3.528ZM14.8068 5.571C14.7888 5.553 14.7888 5.526 14.7618 5.508L12.4936 3.24001C12.4756 3.22201 12.4486 3.213 12.4306 3.195L13.9968 1.629L16.373 4.005L14.8068 5.571Z" fill="#A4A19D"/>
</svg>
