<svg width="152" height="44" viewBox="0 0 152 44" fill="none" xmlns="http://www.w3.org/2000/svg">
<path d="M15.3996 43.9489L0 0H67.9849L52.5807 43.9489L51.1052 43.3577C43.0879 40.1299 37.6562 36.4292 33.9925 32.7854C30.3287 36.4292 24.8971 40.1299 16.8797 43.3577L15.3996 43.9489ZM35.966 30.6307C39.1363 33.8365 43.8371 37.1431 50.7854 40.1168L63.8461 2.85547H4.14342L17.1995 40.1124C24.1433 37.1431 28.8486 33.8321 32.019 30.6263C25.2854 22.5328 26.6284 15.254 26.7244 14.7898L26.9619 13.638H41.0276L41.2652 14.7898C41.3565 15.2584 42.6996 22.5372 35.966 30.6307ZM29.5338 16.4978C29.4562 18.5869 29.8582 23.2204 33.9925 28.4102C38.1222 23.2248 38.5288 18.5912 38.4511 16.4978H29.5338Z" fill="#A5A29E"/>
<path d="M62.0815 44C58.6914 44 57 42.4334 57 39.3071V39.0735C57 37.658 57.43 36.5243 58.2829 35.686C59.1358 34.8478 60.2897 34.4355 61.7303 34.4355C63.2999 34.4355 64.4394 34.834 65.1347 35.6311C65.8299 36.435 66.181 37.6237 66.181 39.1971V39.9873H60.2395C60.3255 40.695 60.5835 41.1829 61.0064 41.4508C61.4293 41.7188 62.0671 41.8562 62.9129 41.8562C63.8589 41.8562 64.8193 41.6707 65.794 41.2997V43.1824C64.805 43.7252 63.5794 44 62.0815 44ZM61.7231 36.435C60.8272 36.435 60.3255 37.0465 60.2109 38.2627H63.1279C63.1279 37.6031 63.0132 37.1358 62.791 36.861C62.5688 36.5724 62.2105 36.435 61.7231 36.435Z" fill="#A5A29E"/>
<path d="M73.7279 44C72.8177 44 72.0938 43.7801 71.5491 43.3335C71.0044 42.8938 70.7393 42.241 70.7393 41.3821C70.7393 40.4614 71.0331 39.7881 71.628 39.3621C72.2228 38.9361 73.0829 38.6543 74.2225 38.51L75.9784 38.2627V37.8848C75.9784 37.4107 75.8494 37.0946 75.5842 36.9366C75.319 36.7854 74.8245 36.703 74.1078 36.703C73.2334 36.703 72.3877 36.7923 71.5635 36.9709V34.9646C72.5095 34.6073 73.7638 34.4286 75.319 34.4286C76.5661 34.4286 77.5193 34.6485 78.1715 35.0883C78.8237 35.528 79.1534 36.2495 79.1534 37.2595V43.8351H76.5231L76.2938 43.1205H76.2006C75.7562 43.7045 74.932 44 73.7279 44ZM74.8102 42.083C75.3477 42.083 75.7347 41.9593 75.9712 41.7051V39.9117L74.846 40.0217C74.4733 40.056 74.201 40.1522 74.0361 40.3171C73.8713 40.482 73.7853 40.7294 73.7853 41.0592C73.7853 41.7394 74.1293 42.083 74.8102 42.083Z" fill="#A5A29E"/>
<path d="M80.3431 43.8214V34.5867H83.4107V35.6998H83.5038C83.769 35.3425 84.113 35.0539 84.5359 34.834C84.9587 34.6142 85.4103 34.5042 85.8976 34.5042C86.1198 34.5042 86.3062 34.5249 86.4567 34.573V37.2664C86.0481 37.1908 85.7686 37.1565 85.6325 37.1565C84.8369 37.1565 84.1417 37.3008 83.5397 37.5825V43.8214H80.3431Z" fill="#A5A29E"/>
<path d="M91.8965 44C88.5065 44 86.8151 42.4334 86.8151 39.3071V39.0735C86.8151 37.658 87.2451 36.5243 88.098 35.686C88.9509 34.8478 90.1048 34.4355 91.5453 34.4355C93.1149 34.4355 94.2545 34.834 94.9497 35.6311C95.6449 36.435 95.9961 37.6237 95.9961 39.1971V39.9873H90.0546C90.1406 40.695 90.3986 41.1829 90.8215 41.4508C91.2443 41.7188 91.8822 41.8562 92.7279 41.8562C93.674 41.8562 94.6344 41.6707 95.6091 41.2997V43.1824C94.62 43.7252 93.3945 44 91.8965 44ZM91.5382 36.435C90.6423 36.435 90.1406 37.0465 90.0259 38.2627H92.9429C92.9429 37.6031 92.8283 37.1358 92.6061 36.861C92.3839 36.5724 92.0255 36.435 91.5382 36.435Z" fill="#A5A29E"/>
<path d="M101.185 43.8351V31.7902H109.821V34.2088H104.704V36.9366H108.703V39.3002H104.704V43.8351H101.185Z" fill="#A5A29E"/>
<path d="M110.739 43.8214V34.5867H113.806V35.6998H113.899C114.165 35.3425 114.509 35.0539 114.932 34.834C115.354 34.6142 115.806 34.5042 116.293 34.5042C116.515 34.5042 116.702 34.5249 116.852 34.573V37.2664C116.444 37.1908 116.164 37.1565 116.028 37.1565C115.233 37.1565 114.537 37.3008 113.935 37.5825V43.8214H110.739Z" fill="#A5A29E"/>
<path d="M126.893 44C123.503 44 121.812 42.4334 121.812 39.3071V39.0735C121.812 37.658 122.242 36.5243 123.095 35.686C123.948 34.8478 125.102 34.4355 126.542 34.4355C128.112 34.4355 129.251 34.834 129.947 35.6311C130.642 36.435 130.993 37.6237 130.993 39.1971V39.9873H125.052C125.138 40.695 125.396 41.1829 125.818 41.4508C126.241 41.7188 126.879 41.8562 127.725 41.8562C128.671 41.8562 129.631 41.6707 130.606 41.2997V43.1824C129.624 43.7252 128.391 44 126.893 44ZM126.542 36.435C125.646 36.435 125.145 37.0465 125.03 38.2627H127.947C127.947 37.6031 127.832 37.1358 127.61 36.861C127.388 36.5724 127.03 36.435 126.542 36.435Z" fill="#A5A29E"/>
<path d="M117.712 33.5766V31.2473H120.945V33.5766H117.712ZM117.734 43.8626V34.6142H120.93V43.8626H117.734Z" fill="#A5A29E"/>
<path d="M131.753 43.8214V34.5867H134.82V35.3975H134.913C135.774 34.7516 136.798 34.4286 137.981 34.4286C139.873 34.4286 140.826 35.2669 140.826 36.9503V43.8145H137.644V37.7955C137.644 37.4244 137.551 37.1633 137.372 37.0122C137.193 36.861 136.877 36.7923 136.426 36.7923C135.967 36.7923 135.473 36.8954 134.949 37.1015V43.8214H131.753Z" fill="#A5A29E"/>
<path d="M145.449 44C144.352 44 143.442 43.6221 142.718 42.8731C141.994 42.1173 141.629 40.9767 141.629 39.4445V39.2452C141.629 37.5893 142.023 36.3663 142.804 35.5899C143.593 34.8134 144.661 34.4286 146.001 34.4286C146.89 34.4286 147.556 34.5592 148.015 34.8203V31H151.175V43.8145H148.445L148.237 43.1136H148.129C147.492 43.7045 146.596 44 145.449 44ZM146.66 41.7738C147.183 41.7738 147.635 41.6364 148.022 41.3615V36.8266C147.678 36.6136 147.234 36.5106 146.696 36.5106C146.101 36.5106 145.65 36.6961 145.349 37.074C145.055 37.4519 144.904 38.1115 144.904 39.0529V39.3208C144.904 40.2553 145.048 40.8943 145.341 41.2447C145.635 41.602 146.08 41.7738 146.66 41.7738Z" fill="#A5A29E"/>
</svg>
